<svg width="48" height="48" viewBox="0 0 48 48" xmlns="http://www.w3.org/2000/svg">
  <defs>
    <linearGradient id="grad" x1="0%" y1="0%" x2="100%" y2="100%">
      <stop offset="0%" style="stop-color:#19c37d;stop-opacity:1" />
      <stop offset="100%" style="stop-color:#10a37f;stop-opacity:1" />
    </linearGradient>
  </defs>
  <rect width="48" height="48" rx="8" fill="url(#grad)"/>
  <path fill="#ffffff" d="M44.5638 19.6422a11.9694 11.9694 0 0 0-1.0314-9.8216 12.0924 12.0924 0 0 0-13.0196-5.8 12.1302 12.1302 0 0 0-19.0638 6.8438 11.9694 11.9694 0 0 0-7.9954 5.8 12.0924 12.0924 0 0 0 1.4854 14.1932 11.96 11.96 0 0 0 1.022 9.8214 12.102 12.102 0 0 0 13.0292 5.8002A11.9694 11.9694 0 0 0 26.5198 48a12.1114 12.1114 0 0 0 11.5436-8.4116 11.9788 11.9788 0 0 0 7.9954-5.8002 12.1114 12.1114 0 0 0-1.495-14.1458zM26.5198 44a8.951 8.951 0 0 1-5.7528-2.0816l.2838-.1608 9.5566-5.5164a1.5896 1.5896 0 0 0 .7854-1.3626v-13.4738l4.04 2.3372a.142.142 0 0 1 .076.104v11.1652a9.008 9.008 0 0 1-8.989 8.9888zm-19.3214-8.2508a8.9416 8.9416 0 0 1-1.0692-6.0274l.284.1704 9.566 5.5164a1.5424 1.5424 0 0 0 1.5612 0l11.6856-6.737v4.6648a.1608.1608 0 0 1-.0664.123L19.48 39.9004a8.9984 8.9984 0 0 1-12.2816-3.2928zM4.6816 15.7912a8.97 8.97 0 0 1 4.731-3.9456V23.2a1.5328 1.5328 0 0 0 .7758 1.353l11.6288 6.7086-4.0402 2.337a.1514.1514 0 0 1-.142 0l-9.6606-5.573A8.808 8.8078 0 0 1 4.6816 15.744zm33.1926 7.7116-11.6288-6.728 4.0384-2.337a.1514.1514 0 0 1 .142 0l9.6606 5.5826a8.9888 8.9888 0 0 1-1.353 16.2084v-11.3544a1.58 1.58 0 0 0-.814-1.334zm4.0214-6.0462-.284-.1704-9.547-5.5636a1.5518 1.5518 0 0 0-1.5708 0L18.818 18.4594v-4.6648a.1324.1324 0 0 1 .0568-.123l9.6606-5.573a8.9984 8.9984 0 0 1 13.3602 9.32zM16.613 25.726l-4.04-2.3276a.1608.1608 0 0 1-.076-.1134V12.1482a8.9984 8.9984 0 0 1 14.7514-6.9074l-.284.161-9.5566 5.5164a1.5896 1.5896 0 0 0-.7854 1.3626v13.5zm2.1952-4.7308 5.204-2.9996 5.2138 2.9996v5.9988l-5.1948 3.0174-5.2134-2.9994v-6.0168z" />
</svg>
